<svg width="32" height="33" viewBox="0 0 32 33" fill="none" xmlns="http://www.w3.org/2000/svg">
<path d="M17.3615 24.0321C19.1582 27.9023 15.2326 31.6064 15.2326 31.6064C15.2326 31.6064 11.5285 27.6808 13.5467 23.9213" stroke="#0061FF" stroke-width="2" stroke-linecap="round" stroke-linejoin="round"/>
<path d="M19.7127 8.82806L19.3804 20.2726L11.7507 20.0511L12.083 8.60652C12.2088 4.27295 14.4591 2.19083 15.5438 1.43546C15.7108 1.31913 15.9108 1.25953 16.1142 1.26544C16.3177 1.27135 16.5138 1.34245 16.6738 1.46827C17.7129 2.2853 19.8385 4.49449 19.7127 8.82806Z" stroke="#0061FF" stroke-width="2" stroke-linecap="round" stroke-linejoin="round"/>
<path d="M19.6561 10.7355L24.9411 16.3365C25.027 16.4276 25.0942 16.5348 25.1388 16.6519C25.1834 16.769 25.2044 16.8938 25.2008 17.019L25.0425 22.4716C25.0375 22.6443 24.9857 22.8123 24.8927 22.9578C24.7997 23.1033 24.6689 23.2208 24.5144 23.2979C24.3598 23.3749 24.1872 23.4086 24.0151 23.3952C23.8429 23.3819 23.6776 23.322 23.5367 23.2221L19.3792 20.2727" stroke="#0061FF" stroke-width="2" stroke-linecap="round" stroke-linejoin="round"/>
<path d="M12.0267 10.514L6.42571 15.7989C6.33458 15.8849 6.26127 15.988 6.20999 16.1023C6.1587 16.2166 6.13043 16.3399 6.12679 16.4652L5.96847 21.9178C5.96346 22.0904 6.00539 22.2612 6.0898 22.4118C6.1742 22.5625 6.29792 22.6874 6.44775 22.7733C6.59758 22.8592 6.76791 22.9028 6.94057 22.8994C7.11323 22.8961 7.28176 22.846 7.42817 22.7544L11.7498 20.0511" stroke="#0061FF" stroke-width="2" stroke-linecap="round" stroke-linejoin="round"/>
</svg>
