<svg width="20" height="21" viewBox="0 0 20 21" fill="none" xmlns="http://www.w3.org/2000/svg">
<path d="M10.8505 15.02C11.9734 17.4389 9.51992 19.754 9.51992 19.754C9.51992 19.754 7.20486 17.3005 8.46623 14.9508" stroke="#75839D" stroke-width="1.2" stroke-linecap="round" stroke-linejoin="round"/>
<path d="M12.3205 5.51754L12.1128 12.6704L7.34423 12.5319L7.55192 5.37908C7.63057 2.6706 9.03696 1.36927 9.71494 0.897165C9.81932 0.824463 9.94429 0.787213 10.0714 0.790905C10.1986 0.794596 10.3212 0.839034 10.4212 0.91767C11.0706 1.42832 12.3991 2.80906 12.3205 5.51754Z" stroke="#75839D" stroke-width="1.2" stroke-linecap="round" stroke-linejoin="round"/>
<path d="M12.2848 6.70973L15.5879 10.2103C15.6416 10.2673 15.6836 10.3343 15.7115 10.4075C15.7393 10.4807 15.7525 10.5586 15.7502 10.6369L15.6513 14.0448C15.6481 14.1527 15.6158 14.2577 15.5576 14.3486C15.4995 14.4396 15.4178 14.5131 15.3212 14.5612C15.2246 14.6093 15.1167 14.6304 15.0091 14.622C14.9015 14.6137 14.7982 14.5763 14.7101 14.5139L12.1117 12.6704" stroke="#75839D" stroke-width="1.2" stroke-linecap="round" stroke-linejoin="round"/>
<path d="M7.51669 6.57126L4.01607 9.87433C3.95911 9.92807 3.9133 9.99251 3.88124 10.064C3.84919 10.1354 3.83152 10.2125 3.82924 10.2907L3.73029 13.6986C3.72716 13.8065 3.75337 13.9132 3.80612 14.0074C3.85888 14.1016 3.9362 14.1797 4.02984 14.2333C4.12349 14.287 4.22994 14.3142 4.33786 14.3122C4.44577 14.3101 4.5511 14.2788 4.6426 14.2215L7.34361 12.532" stroke="#75839D" stroke-width="1.2" stroke-linecap="round" stroke-linejoin="round"/>
</svg>
