<svg width="60" height="30" viewBox="0 0 60 30" fill="none" xmlns="http://www.w3.org/2000/svg">
<path d="M0 5C0 2.23858 2.23858 0 5 0H30V30H5C2.23858 30 0 27.7614 0 25V5Z" fill="#0061FF"/>
<path d="M11.9521 14.7852C11.7061 15.0313 11.7061 15.4414 11.9521 15.6875L17.2568 21.0195C17.5303 21.2656 17.9404 21.2656 18.1865 21.0195L18.8154 20.3906C19.0615 20.1445 19.0615 19.7344 18.8154 19.4609L14.6045 15.25L18.8154 11.0117C19.0615 10.7383 19.0615 10.3281 18.8154 10.082L18.1865 9.45313C17.9404 9.20703 17.5303 9.20703 17.2568 9.45313L11.9521 14.7852Z" fill="white"/>
<path d="M30 0H55C57.7614 0 60 2.23858 60 5V25C60 27.7614 57.7614 30 55 30H30V0Z" fill="#E0ECFF"/>
<path d="M48.0479 15.2148C48.2939 14.9688 48.2939 14.5586 48.0479 14.3125L42.7432 8.98047C42.4697 8.73438 42.0596 8.73438 41.8135 8.98047L41.1846 9.60938C40.9385 9.85547 40.9385 10.2656 41.1846 10.5391L45.3955 14.75L41.1846 18.9883C40.9385 19.2617 40.9385 19.6719 41.1846 19.918L41.8135 20.5469C42.0596 20.793 42.4697 20.793 42.7432 20.5469L48.0479 15.2148Z" fill="#0061FF"/>
</svg>
