<svg width="22" height="19" viewBox="0 0 22 19" fill="none" xmlns="http://www.w3.org/2000/svg">
<path d="M14.7381 9.42859C14.7381 11.496 13.0675 13.1666 11.0001 13.1666C8.93271 13.1666 7.26208 11.496 7.26208 9.42859C7.26208 7.36119 8.93271 5.69057 11.0001 5.69057C13.0675 5.69057 14.7381 7.36119 14.7381 9.42859Z" stroke="#75839D" stroke-width="1.5" stroke-linecap="round" stroke-linejoin="round"/>
<path d="M11 18.0636C14.6858 18.0636 18.1211 15.8918 20.5122 12.1329C21.4519 10.6607 21.4519 8.18607 20.5122 6.71383C18.1211 2.95492 14.6858 0.783106 11 0.783106C7.31421 0.783106 3.87898 2.95492 1.4879 6.71383C0.548174 8.18607 0.548174 10.6607 1.4879 12.1329C3.87898 15.8918 7.31421 18.0636 11 18.0636Z" stroke="#75839D" stroke-width="1.5" stroke-linecap="round" stroke-linejoin="round"/>
</svg>
