<svg width="17" height="16" viewBox="0 0 17 16" fill="none" xmlns="http://www.w3.org/2000/svg">
<path d="M4.42313 12.5147L1.83103 14.6937C1.73716 14.7726 1.62272 14.8231 1.50115 14.8391C1.37958 14.8552 1.25595 14.8363 1.14479 14.7845C1.03363 14.7327 0.939562 14.6503 0.873652 14.5469C0.807741 14.4435 0.772727 14.3234 0.772727 14.2008V1.41667C0.772727 1.24588 0.840571 1.08209 0.961333 0.961333C1.08209 0.840571 1.24588 0.772727 1.41667 0.772727H15.5833C15.7541 0.772727 15.9179 0.840571 16.0387 0.961333C16.1594 1.08209 16.2273 1.24588 16.2273 1.41667V11.7197C16.2273 11.8905 16.1594 12.0543 16.0387 12.175C15.9179 12.2958 15.7541 12.3636 15.5833 12.3636H4.8375C4.6859 12.3636 4.53917 12.4171 4.42313 12.5147Z" stroke="#75839D" stroke-width="1.5" stroke-linecap="round" stroke-linejoin="round"/>
<path d="M4.63627 7.53403C5.16973 7.53403 5.60218 7.10158 5.60218 6.56812C5.60218 6.03466 5.16973 5.60221 4.63627 5.60221C4.10281 5.60221 3.67036 6.03466 3.67036 6.56812C3.67036 7.10158 4.10281 7.53403 4.63627 7.53403Z" fill="#DEDEDE"/>
<path d="M8.5 7.53403C9.03346 7.53403 9.46591 7.10158 9.46591 6.56812C9.46591 6.03466 9.03346 5.60221 8.5 5.60221C7.96654 5.60221 7.53409 6.03466 7.53409 6.56812C7.53409 7.10158 7.96654 7.53403 8.5 7.53403Z" fill="#DEDEDE"/>
<path d="M12.3638 7.53403C12.8972 7.53403 13.3297 7.10158 13.3297 6.56812C13.3297 6.03466 12.8972 5.60221 12.3638 5.60221C11.8303 5.60221 11.3979 6.03466 11.3979 6.56812C11.3979 7.10158 11.8303 7.53403 12.3638 7.53403Z" fill="#DEDEDE"/>
<path d="M4.63627 7.53403C5.16973 7.53403 5.60218 7.10158 5.60218 6.56812C5.60218 6.03466 5.16973 5.60221 4.63627 5.60221C4.10281 5.60221 3.67036 6.03466 3.67036 6.56812C3.67036 7.10158 4.10281 7.53403 4.63627 7.53403Z" fill="#75839D"/>
<path d="M8.5 7.53403C9.03346 7.53403 9.46591 7.10158 9.46591 6.56812C9.46591 6.03466 9.03346 5.60221 8.5 5.60221C7.96654 5.60221 7.53409 6.03466 7.53409 6.56812C7.53409 7.10158 7.96654 7.53403 8.5 7.53403Z" fill="#75839D"/>
<path d="M12.3638 7.53403C12.8972 7.53403 13.3297 7.10158 13.3297 6.56812C13.3297 6.03466 12.8972 5.60221 12.3638 5.60221C11.8303 5.60221 11.3979 6.03466 11.3979 6.56812C11.3979 7.10158 11.8303 7.53403 12.3638 7.53403Z" fill="#75839D"/>
</svg>
