<svg width="248" height="54" viewBox="0 0 248 54" fill="none" xmlns="http://www.w3.org/2000/svg">
<path d="M77.7033 16.361C83.6925 16.361 88.564 21.0821 88.564 26.8865C88.564 32.6909 83.6925 37.412 77.7033 37.412H70.2559V16.361H77.7033ZM77.7033 10.3353H67.4556C65.5887 10.3353 64.0383 11.8339 64.0383 13.6471V40.1298C64.0383 41.939 65.5847 43.4416 67.4556 43.4416H77.7033C87.1498 43.4416 94.7815 36.0454 94.7815 26.8904C94.7815 17.7354 87.1498 10.3353 77.7033 10.3353Z" fill="black"/>
<path d="M124.767 40.4327C124.767 42.0789 123.361 43.4416 121.662 43.4416C119.964 43.4416 118.557 42.0789 118.557 40.4327V31.4058C118.557 28.0668 115.793 25.3879 112.348 25.3879C108.903 25.3879 106.138 28.0668 106.138 31.4058V40.4327C106.138 42.0789 104.732 43.4416 103.034 43.4416C101.335 43.4416 99.9289 42.0789 99.9289 40.4327V13.3482C99.9289 11.702 101.335 10.3392 103.034 10.3392C104.732 10.3392 106.138 11.702 106.138 13.3482V21.0123C107.933 19.9795 110.068 19.3661 112.348 19.3661C119.186 19.3661 124.767 24.7744 124.767 31.4019V40.4327Z" fill="black"/>
<path d="M136.994 40.4326C136.994 42.0788 135.588 43.4416 133.889 43.4416C132.191 43.4416 130.784 42.0788 130.784 40.4326V22.3789C130.784 20.7327 132.191 19.3699 133.889 19.3699C135.588 19.3699 136.994 20.7327 136.994 22.3789V40.4326Z" fill="black"/>
<path d="M177.941 40.4327C177.941 42.0789 176.535 43.4416 174.836 43.4416C174.011 43.4416 173.234 43.1116 172.653 42.5486L160.863 31.1224L149.076 42.5486C148.496 43.1116 147.718 43.4416 146.893 43.4416C145.195 43.4416 143.788 42.0789 143.788 40.4327V13.3482C143.788 11.702 145.195 10.3392 146.893 10.3392C148.592 10.3392 149.998 11.702 149.998 13.3482V33.1918L158.683 24.7744C159.264 24.1649 160.089 23.8815 160.867 23.8815C161.644 23.8815 162.469 24.1649 163.05 24.7744L171.735 33.1918V13.3482C171.735 11.702 173.141 10.3392 174.84 10.3392C176.539 10.3392 177.945 11.702 177.945 13.3482V40.4327H177.941Z" fill="black"/>
<path d="M190.944 40.4326C190.944 42.0788 189.538 43.4416 187.84 43.4416C186.141 43.4416 184.735 42.0788 184.735 40.4326V22.3789C184.735 20.7327 186.141 19.3699 187.84 19.3699C189.538 19.3699 190.944 20.7327 190.944 22.3789V40.4326Z" fill="black"/>
<path d="M210.935 37.4236C211.809 37.4236 212.486 36.7674 212.486 35.9172C212.486 35.0669 211.809 34.4107 210.935 34.4107H204.726C200.455 34.4107 196.962 31.0252 196.962 26.8864C196.962 22.7476 200.455 19.3621 204.726 19.3621H214.04C215.739 19.3621 217.145 20.7248 217.145 22.371C217.145 24.0172 215.739 25.38 214.04 25.38H204.726C203.852 25.38 203.171 26.0361 203.171 26.8864C203.171 27.7367 203.848 28.3928 204.726 28.3928H210.935C215.206 28.3928 218.695 31.7784 218.695 35.9172C218.695 40.0559 215.202 43.4415 210.935 43.4415H200.067C198.368 43.4415 196.962 42.0787 196.962 40.4325C196.962 38.7864 198.368 37.4236 200.067 37.4236H210.935Z" fill="black"/>
<path d="M235.581 43.4416C228.738 43.4416 223.162 38.0332 223.162 31.4057C223.162 24.7783 228.738 19.3699 235.581 19.3699C242.419 19.3699 248 24.7783 248 31.4057C248 33.0519 246.594 34.4147 244.895 34.4147H230.193C231.262 36.2472 233.249 37.4237 235.577 37.4237H238.682C240.38 37.4237 241.786 38.7864 241.786 40.4326C241.786 42.0788 240.38 43.4416 238.682 43.4416H235.581ZM230.193 28.3929H240.961C239.896 26.6069 237.856 25.3839 235.577 25.3839C233.249 25.3839 231.262 26.6069 230.193 28.3929Z" fill="black"/>
<path d="M133.889 17.1103C135.819 17.1103 137.383 15.5946 137.383 13.7248C137.383 11.855 135.819 10.3392 133.889 10.3392C131.96 10.3392 130.396 11.855 130.396 13.7248C130.396 15.5946 131.96 17.1103 133.889 17.1103Z" fill="url(#paint0_linear_13_990)"/>
<path d="M187.84 17.1103C189.769 17.1103 191.333 15.5946 191.333 13.7248C191.333 11.855 189.769 10.3392 187.84 10.3392C185.911 10.3392 184.347 11.855 184.347 13.7248C184.347 15.5946 185.911 17.1103 187.84 17.1103Z" fill="url(#paint1_linear_13_990)"/>
<path d="M38.6913 0H3.56146C1.59444 0 0 1.54525 0 3.45157V41.0655C0 42.4632 0.869333 43.7211 2.19937 44.253C3.52541 44.7849 5.05976 44.4899 6.08132 43.5037L23.2316 26.8826C24.6218 25.5354 24.6218 23.3495 23.2316 22.0023C21.8415 20.655 19.586 20.655 18.1959 22.0023L7.12292 32.7336V6.90313H38.6953C44.0275 6.90313 48.3622 11.1079 48.3622 16.2717V37.4974C48.3622 42.6651 44.0235 46.866 38.6953 46.866H21.7093L32.7823 36.1347C34.1724 34.7874 34.1724 32.6016 32.7823 31.2543C31.3921 29.9071 29.1367 29.9071 27.7465 31.2543L10.5922 47.8793C9.57468 48.8655 9.27022 50.3525 9.81906 51.6415C10.3719 52.9305 11.6699 53.773 13.1081 53.773H38.6873C47.9455 53.773 55.4771 46.4738 55.4771 37.5013V16.2755C55.4851 7.30303 47.9535 0 38.6913 0Z" fill="url(#paint2_linear_13_990)"/>
<path d="M38.5431 29.1267C40.5101 29.1267 42.1045 27.5815 42.1045 25.6752V16.4192C42.1045 14.5129 40.5101 12.9677 38.5431 12.9677H28.9924C27.0254 12.9677 25.431 14.5129 25.431 16.4192C25.431 18.3256 27.0254 19.8708 28.9924 19.8708H34.9816V25.6752C34.9816 27.5815 36.576 29.1267 38.5431 29.1267Z" fill="url(#paint3_linear_13_990)"/>
<defs>
<linearGradient id="paint0_linear_13_990" x1="130.397" y1="13.7234" x2="137.382" y2="13.7234" gradientUnits="userSpaceOnUse">
<stop stop-color="#0068FF"/>
<stop offset="1" stop-color="#0000E1"/>
</linearGradient>
<linearGradient id="paint1_linear_13_990" x1="184.348" y1="13.7234" x2="191.333" y2="13.7234" gradientUnits="userSpaceOnUse">
<stop stop-color="#FF9852"/>
<stop offset="0.2774" stop-color="#FF8A3A"/>
<stop offset="1" stop-color="#FF6700"/>
</linearGradient>
<linearGradient id="paint2_linear_13_990" x1="34.75" y1="16.336" x2="5.86062" y2="46.1452" gradientUnits="userSpaceOnUse">
<stop stop-color="#0068FF"/>
<stop offset="1" stop-color="#0000E1"/>
</linearGradient>
<linearGradient id="paint3_linear_13_990" x1="41.7868" y1="13.2771" x2="31.247" y2="24.1524" gradientUnits="userSpaceOnUse">
<stop stop-color="#FF9852"/>
<stop offset="0.2774" stop-color="#FF8A3A"/>
<stop offset="1" stop-color="#FF6700"/>
</linearGradient>
</defs>
</svg>
