<svg width="32" height="32" viewBox="0 0 32 32" fill="none" xmlns="http://www.w3.org/2000/svg">
<path fill-rule="evenodd" clip-rule="evenodd" d="M9.707 31C9.089 31 8.5025 30.952 7.9505 30.8575L7.6235 30.796C4.067 30.0565 2 27.3325 2 23.1865V8.8135C2 8.3125 2.03 7.8325 2.09 7.3735C2.6135 3.346 5.381 1 9.707 1H21.2945C26.0885 1 28.955 3.88 29 8.698V8.8135V23.1865C29 28.072 26.126 31 21.2945 31H9.707ZM9.70677 3.18549C6.02277 3.18549 4.15527 5.07999 4.15527 8.81349V23.1865C4.15527 26.92 6.02277 28.8145 9.70677 28.8145H21.2808C24.9633 28.8145 26.8188 26.92 26.8188 23.1865V8.81349C26.8188 5.07999 24.9633 3.18549 21.2808 3.18549H9.70677ZM21.959 22.351C21.959 21.751 21.4805 21.265 20.8895 21.265H10.073C9.482 21.265 9.002 21.751 9.002 22.351C9.002 22.951 9.482 23.437 10.073 23.437H20.8895C21.4805 23.437 21.959 22.951 21.959 22.351ZM20.8895 14.9065C21.302 14.8615 21.7055 15.0595 21.926 15.415C22.1465 15.7735 22.1465 16.2265 21.926 16.585C21.7055 16.9405 21.302 17.1385 20.8895 17.0935H10.073C9.52402 17.0305 9.10852 16.561 9.10852 16C9.10852 15.439 9.52402 14.968 10.073 14.9065H20.8895ZM15.1655 9.65649C15.1655 9.09549 14.75 8.62449 14.201 8.56299H10.0865C9.53601 8.62449 9.12051 9.09549 9.12051 9.65649C9.12051 10.216 9.53601 10.687 10.0865 10.7485H14.201C14.75 10.687 15.1655 10.216 15.1655 9.65649Z" fill="#0061FF"/>
</svg>
