<svg width="200" height="43" viewBox="0 0 200 43" fill="none" xmlns="http://www.w3.org/2000/svg">
<path d="M62.6641 12.9404C67.494 12.9404 71.4226 16.6745 71.4226 21.2654C71.4226 25.8562 67.494 29.5903 62.6641 29.5903H56.6581V12.9404H62.6641ZM62.6641 8.17447H54.3998C52.8943 8.17447 51.644 9.35981 51.644 10.7939V31.7399C51.644 33.1709 52.891 34.3593 54.3998 34.3593H62.6641C70.2822 34.3593 76.4368 28.5094 76.4368 21.2684C76.4368 14.0274 70.2822 8.17447 62.6641 8.17447Z" fill="black"/>
<path d="M100.619 31.9795C100.619 33.2816 99.4851 34.3594 98.1152 34.3594C96.7454 34.3594 95.6114 33.2816 95.6114 31.9795V24.8399C95.6114 22.199 93.3822 20.0801 90.6037 20.0801C87.8253 20.0801 85.5961 22.199 85.5961 24.8399V31.9795C85.5961 33.2816 84.4621 34.3594 83.0922 34.3594C81.7224 34.3594 80.5884 33.2816 80.5884 31.9795V10.5575C80.5884 9.2555 81.7224 8.17765 83.0922 8.17765C84.4621 8.17765 85.5961 9.2555 85.5961 10.5575V16.6193C87.0434 15.8025 88.7654 15.3173 90.6037 15.3173C96.1186 15.3173 100.619 19.5949 100.619 24.8368V31.9795Z" fill="black"/>
<path d="M110.48 31.9794C110.48 33.2814 109.346 34.3593 107.976 34.3593C106.606 34.3593 105.472 33.2814 105.472 31.9794V17.7001C105.472 16.3981 106.606 15.3203 107.976 15.3203C109.346 15.3203 110.48 16.3981 110.48 17.7001V31.9794Z" fill="black"/>
<path d="M143.502 31.9795C143.502 33.2816 142.368 34.3594 140.998 34.3594C140.333 34.3594 139.706 34.0984 139.238 33.6531L129.729 24.6157L120.225 33.6531C119.756 34.0984 119.129 34.3594 118.464 34.3594C117.094 34.3594 115.96 33.2816 115.96 31.9795V10.5575C115.96 9.2555 117.094 8.17765 118.464 8.17765C119.834 8.17765 120.968 9.2555 120.968 10.5575V26.2525L127.972 19.5949C128.44 19.1128 129.106 18.8886 129.733 18.8886C130.359 18.8886 131.025 19.1128 131.493 19.5949L138.498 26.2525V10.5575C138.498 9.2555 139.632 8.17765 141.002 8.17765C142.371 8.17765 143.505 9.2555 143.505 10.5575V31.9795H143.502Z" fill="black"/>
<path d="M153.988 31.9794C153.988 33.2814 152.854 34.3593 151.484 34.3593C150.114 34.3593 148.98 33.2814 148.98 31.9794V17.7001C148.98 16.3981 150.114 15.3203 151.484 15.3203C152.854 15.3203 153.988 16.3981 153.988 17.7001V31.9794Z" fill="black"/>
<path d="M170.109 29.5995C170.813 29.5995 171.359 29.0805 171.359 28.408C171.359 27.7355 170.813 27.2166 170.109 27.2166H165.101C161.657 27.2166 158.84 24.5388 158.84 21.2653C158.84 17.9918 161.657 15.3141 165.101 15.3141H172.613C173.983 15.3141 175.117 16.3919 175.117 17.694C175.117 18.996 173.983 20.0739 172.613 20.0739H165.101C164.397 20.0739 163.848 20.5928 163.848 21.2653C163.848 21.9378 164.394 22.4568 165.101 22.4568H170.109C173.553 22.4568 176.367 25.1346 176.367 28.408C176.367 31.6815 173.55 34.3593 170.109 34.3593H161.344C159.974 34.3593 158.84 33.2814 158.84 31.9794C158.84 30.6774 159.974 29.5995 161.344 29.5995H170.109Z" fill="black"/>
<path d="M189.985 34.3593C184.467 34.3593 179.969 30.0817 179.969 24.8398C179.969 19.5979 184.467 15.3203 189.985 15.3203C195.5 15.3203 200 19.5979 200 24.8398C200 26.1418 198.866 27.2197 197.496 27.2197H185.639C186.502 28.6691 188.104 29.5995 189.981 29.5995H192.485C193.855 29.5995 194.989 30.6774 194.989 31.9794C194.989 33.2814 193.855 34.3593 192.485 34.3593H189.985ZM185.639 22.4568H194.324C193.464 21.0443 191.82 20.0769 189.981 20.0769C188.104 20.0769 186.502 21.0443 185.639 22.4568Z" fill="black"/>
<path d="M107.976 13.5331C109.531 13.5331 110.793 12.3343 110.793 10.8554C110.793 9.37652 109.531 8.17765 107.976 8.17765C106.42 8.17765 105.158 9.37652 105.158 10.8554C105.158 12.3343 106.42 13.5331 107.976 13.5331Z" fill="url(#paint0_linear_13_374)"/>
<path d="M151.485 13.5331C153.041 13.5331 154.302 12.3343 154.302 10.8554C154.302 9.37652 153.041 8.17765 151.485 8.17765C149.929 8.17765 148.667 9.37652 148.667 10.8554C148.667 12.3343 149.929 13.5331 151.485 13.5331Z" fill="url(#paint1_linear_13_374)"/>
<path d="M31.2026 0H2.87214C1.28584 0 0 1.22218 0 2.72995V32.48C0 33.5855 0.701073 34.5804 1.77368 35.0011C2.84306 35.4218 4.08044 35.1885 4.90428 34.4085L18.7351 21.2623C19.8562 20.1967 19.8562 18.4679 18.7351 17.4023C17.6141 16.3367 15.7951 16.3367 14.6741 17.4023L5.74428 25.89V5.45991H31.2058C35.506 5.45991 39.0016 8.7856 39.0016 12.8698V29.6579C39.0016 33.7452 35.5027 37.0678 31.2058 37.0678H17.5074L26.4372 28.5801C27.5583 27.5145 27.5583 25.7856 26.4372 24.7201C25.3162 23.6545 23.4973 23.6545 22.3762 24.7201L8.54211 37.8693C7.7215 38.6493 7.47596 39.8254 7.91857 40.8449C8.36442 41.8644 9.41118 42.5308 10.571 42.5308H31.1994C38.6656 42.5308 44.7395 36.7576 44.7395 29.661V12.8729C44.7459 5.7762 38.6721 0 31.2026 0Z" fill="url(#paint2_linear_13_374)"/>
<path d="M31.0832 23.0372C32.6695 23.0372 33.9553 21.8151 33.9553 20.3073V12.9865C33.9553 11.4787 32.6695 10.2565 31.0832 10.2565H23.3811C21.7948 10.2565 20.509 11.4787 20.509 12.9865C20.509 14.4942 21.7948 15.7164 23.3811 15.7164H28.2111V20.3073C28.2111 21.8151 29.4969 23.0372 31.0832 23.0372Z" fill="url(#paint3_linear_13_374)"/>
<defs>
<linearGradient id="paint0_linear_13_374" x1="105.159" y1="10.8543" x2="110.792" y2="10.8543" gradientUnits="userSpaceOnUse">
<stop stop-color="#0068FF"/>
<stop offset="1" stop-color="#0000E1"/>
</linearGradient>
<linearGradient id="paint1_linear_13_374" x1="148.668" y1="10.8543" x2="154.301" y2="10.8543" gradientUnits="userSpaceOnUse">
<stop stop-color="#FF9852"/>
<stop offset="0.2774" stop-color="#FF8A3A"/>
<stop offset="1" stop-color="#FF6700"/>
</linearGradient>
<linearGradient id="paint2_linear_13_374" x1="28.0242" y1="12.9207" x2="5.19279" y2="36.9412" gradientUnits="userSpaceOnUse">
<stop stop-color="#0068FF"/>
<stop offset="1" stop-color="#0000E1"/>
</linearGradient>
<linearGradient id="paint3_linear_13_374" x1="33.6991" y1="10.5012" x2="25.3695" y2="19.2646" gradientUnits="userSpaceOnUse">
<stop stop-color="#FF9852"/>
<stop offset="0.2774" stop-color="#FF8A3A"/>
<stop offset="1" stop-color="#FF6700"/>
</linearGradient>
</defs>
</svg>
