<svg width="20" height="20" viewBox="0 0 20 20" fill="none" xmlns="http://www.w3.org/2000/svg">
<path d="M10 5.09677C8.29032 5.09677 6.90323 6.48387 6.90323 8.19355C6.90323 9.90323 8.29032 11.2903 10 11.2903C11.7097 11.2903 13.0968 9.90323 13.0968 8.19355C13.0968 6.48387 11.7097 5.09677 10 5.09677ZM10 9.74194C9.14516 9.74194 8.45161 9.04839 8.45161 8.19355C8.45161 7.33871 9.14516 6.64516 10 6.64516C10.8548 6.64516 11.5484 7.33871 11.5484 8.19355C11.5484 9.04839 10.8548 9.74194 10 9.74194ZM10 2C5.58065 2 2 5.58065 2 10C2 14.4194 5.58065 18 10 18C14.4194 18 18 14.4194 18 10C18 5.58065 14.4194 2 10 2ZM10 16.4516C8.39677 16.4516 6.93226 15.8613 5.80323 14.8903C6.28387 14.1484 7.10645 13.6452 8.04839 13.6161C8.71935 13.8226 9.35806 13.9258 10 13.9258C10.6419 13.9258 11.2806 13.8258 11.9516 13.6161C12.8935 13.6484 13.7161 14.1484 14.1968 14.8903C13.0677 15.8613 11.6032 16.4516 10 16.4516ZM15.2484 13.7387C14.4613 12.7258 13.2452 12.0645 11.8581 12.0645C11.529 12.0645 11.0194 12.3742 10 12.3742C8.98387 12.3742 8.47097 12.0645 8.14193 12.0645C6.75806 12.0645 5.54194 12.7258 4.75161 13.7387C3.99677 12.6839 3.54839 11.3935 3.54839 10C3.54839 6.44194 6.44194 3.54839 10 3.54839C13.5581 3.54839 16.4516 6.44194 16.4516 10C16.4516 11.3935 16.0032 12.6839 15.2484 13.7387Z" fill="#75839D"/>
</svg>
