<svg width="20" height="20" viewBox="0 0 20 20" fill="none" xmlns="http://www.w3.org/2000/svg">
<path d="M5.63636 10.7273H2.72727C2.53439 10.7273 2.3494 10.8039 2.21301 10.9403C2.07662 11.0767 2 11.2617 2 11.4545V17.2727C2 17.4656 2.07662 17.6506 2.21301 17.787C2.3494 17.9234 2.53439 18 2.72727 18H5.63636C5.82925 18 6.01423 17.9234 6.15062 17.787C6.28701 17.6506 6.36364 17.4656 6.36364 17.2727V11.4545C6.36364 11.2617 6.28701 11.0767 6.15062 10.9403C6.01423 10.8039 5.82925 10.7273 5.63636 10.7273ZM4.90909 16.5455H3.45455V12.1818H4.90909V16.5455ZM17.2727 7.81818H14.3636C14.1708 7.81818 13.9858 7.8948 13.8494 8.0312C13.713 8.16759 13.6364 8.35257 13.6364 8.54545V17.2727C13.6364 17.4656 13.713 17.6506 13.8494 17.787C13.9858 17.9234 14.1708 18 14.3636 18H17.2727C17.4656 18 17.6506 17.9234 17.787 17.787C17.9234 17.6506 18 17.4656 18 17.2727V8.54545C18 8.35257 17.9234 8.16759 17.787 8.0312C17.6506 7.8948 17.4656 7.81818 17.2727 7.81818ZM16.5455 16.5455H15.0909V9.27273H16.5455V16.5455ZM11.4545 2H8.54545C8.35257 2 8.16759 2.07662 8.0312 2.21301C7.8948 2.3494 7.81818 2.53439 7.81818 2.72727V17.2727C7.81818 17.4656 7.8948 17.6506 8.0312 17.787C8.16759 17.9234 8.35257 18 8.54545 18H11.4545C11.6474 18 11.8324 17.9234 11.9688 17.787C12.1052 17.6506 12.1818 17.4656 12.1818 17.2727V2.72727C12.1818 2.53439 12.1052 2.3494 11.9688 2.21301C11.8324 2.07662 11.6474 2 11.4545 2ZM10.7273 16.5455H9.27273V3.45455H10.7273V16.5455Z" fill="#75839D"/>
</svg>
