<svg width="66" height="11" viewBox="0 0 66 11" fill="none" xmlns="http://www.w3.org/2000/svg">
<path d="M4.467 0.344277L3.25137 2.94193L0.502193 3.35209C0.0159434 3.43021 -0.171076 4.05521 0.184261 4.42631L2.14796 6.43803L1.68041 9.27006C1.60561 9.77787 2.12926 10.1685 2.5594 9.93412L5.00935 8.58646L7.4406 9.93412C7.87074 10.1685 8.39439 9.77787 8.31959 9.27006L7.85204 6.43803L9.81574 4.42631C10.1711 4.05521 9.98406 3.43021 9.49781 3.35209L6.76733 2.94193L5.533 0.344277C5.32728 -0.104942 4.69142 -0.124473 4.467 0.344277Z" fill="#0061FF"/>
<path d="M18.467 0.344277L17.2514 2.94193L14.5022 3.35209C14.0159 3.43021 13.8289 4.05521 14.1843 4.42631L16.148 6.43803L15.6804 9.27006C15.6056 9.77787 16.1293 10.1685 16.5594 9.93412L19.0094 8.58646L21.4406 9.93412C21.8707 10.1685 22.3944 9.77787 22.3196 9.27006L21.852 6.43803L23.8157 4.42631C24.1711 4.05521 23.9841 3.43021 23.4978 3.35209L20.7673 2.94193L19.533 0.344277C19.3273 -0.104942 18.6914 -0.124473 18.467 0.344277Z" fill="#0061FF"/>
<path d="M32.467 0.344277L31.2514 2.94193L28.5022 3.35209C28.0159 3.43021 27.8289 4.05521 28.1843 4.42631L30.148 6.43803L29.6804 9.27006C29.6056 9.77787 30.1293 10.1685 30.5594 9.93412L33.0094 8.58646L35.4406 9.93412C35.8707 10.1685 36.3944 9.77787 36.3196 9.27006L35.852 6.43803L37.8157 4.42631C38.1711 4.05521 37.9841 3.43021 37.4978 3.35209L34.7673 2.94193L33.533 0.344277C33.3273 -0.104942 32.6914 -0.124473 32.467 0.344277Z" fill="#0061FF"/>
<path d="M46.467 0.344277L45.2514 2.94193L42.5022 3.35209C42.0159 3.43021 41.8289 4.05521 42.1843 4.42631L44.148 6.43803L43.6804 9.27006C43.6056 9.77787 44.1293 10.1685 44.5594 9.93412L47.0094 8.58646L49.4406 9.93412C49.8707 10.1685 50.3944 9.77787 50.3196 9.27006L49.852 6.43803L51.8157 4.42631C52.1711 4.05521 51.9841 3.43021 51.4978 3.35209L48.7673 2.94193L47.533 0.344277C47.3273 -0.104942 46.6914 -0.124473 46.467 0.344277Z" fill="#0061FF"/>
<path d="M65.4978 3.35209L62.7673 2.94193L61.533 0.344277C61.3273 -0.104942 60.6914 -0.124473 60.467 0.344277L59.2514 2.94193L56.5022 3.35209C56.0159 3.43021 55.8289 4.05521 56.1843 4.42631L58.148 6.43803L57.6804 9.27006C57.6056 9.77787 58.1293 10.1685 58.5594 9.93412L61.0094 8.58646L63.4406 9.93412C63.8707 10.1685 64.3944 9.77787 64.3196 9.27006L63.852 6.43803L65.8157 4.42631C66.1711 4.05521 65.9841 3.43021 65.4978 3.35209ZM62.8795 6.106L63.3284 8.80131L61.0094 7.53178L58.6716 8.80131L59.1205 6.106L57.2316 4.19193L59.8311 3.80131L61.0094 1.34037L62.1689 3.80131L64.7684 4.19193L62.8795 6.106Z" fill="#75839D"/>
</svg>
